<svg width="771px" height="771px" viewBox="58 138 771 771" version="1.1" xmlns="http://www.w3.org/2000/svg" xmlns:xlink="http://www.w3.org/1999/xlink">
<path d="M443.5,909 C230.594229,909 58,736.405771 58,523.5 C58,310.594229 230.594229,138 443.5,138 C656.405771,138 829,310.594229 829,523.5 C829,736.405771 656.405771,909 443.5,909 Z M443.5,859 C628.791534,859 779,708.791534 779,523.5 C779,338.208466 628.791534,188 443.5,188 C258.208466,188 108,338.208466 108,523.5 C108,708.791534 258.208466,859 443.5,859 Z M573.327904,392.778198 L570.676253,634.144678 L493.882057,557.350482 L351.04172,700.190818 L267.069824,616.218922 L410.309967,472.978779 L331.290298,393.95911 L573.327904,392.778198 Z" />
</svg>