<?xml version="1.0" encoding="utf-8"?>
<!-- Generator: Adobe Illustrator 17.0.0, SVG Export Plug-In . SVG Version: 6.00 Build 0)  -->
<!DOCTYPE svg PUBLIC "-//W3C//DTD SVG 1.1//EN" "http://www.w3.org/Graphics/SVG/1.1/DTD/svg11.dtd">
<svg version="1.1" id="Calque_1" xmlns="http://www.w3.org/2000/svg" xmlns:xlink="http://www.w3.org/1999/xlink" x="0px" y="0px"
	 width="50px" height="12.125px" viewBox="0 0 50 12.125" enable-background="new 0 0 50 12.125" xml:space="preserve">
<path d="M46.069,4.565c-0.535-1.098-1.85-1.601-3.537-1.724c-0.252-0.002-0.498-0.005-0.749-0.008
	c-0.744,0.093-1.169,0.409-1.179,1.273c1.043,0.499,1.001,1.446,0.608,2.691c-0.063,0.313-0.121,0.627-0.178,0.94
	c-0.162,0.139-0.32,0.278-0.477,0.417c-0.246,0.716,0.765,0.893,1.53,0.822c0.356-0.033,0.87-0.245,1.095-0.459
	c0.094-0.092,0.079-0.361,0.115-0.487c0.246-0.186,0.781-0.141,1.074-0.25c0.65-0.24,1.247-0.624,1.635-1.176
	C46.436,5.991,46.347,5.141,46.069,4.565L46.069,4.565z M44.544,6.056c-0.43,0.57-1.09,0.933-1.771,1.202
	c-0.026-0.002-0.047-0.004-0.073-0.007c-0.026-1.021,0.891-3.11-0.005-3.441c-0.063-0.304,0.561-0.186,0.844-0.251
	c0.346,0.091,0.666,0.151,0.886,0.345C44.932,4.352,45.026,5.408,44.544,6.056L44.544,6.056z"/>
<path d="M29.326,1.934c0.225,0.019,0.425,0.034,0.498,0.178c0.194,0.372,0.079,0.954,0.126,1.425
	c0.037,0.443,0.073,0.886,0.115,1.329c0.052,0.196,0.105,0.392,0.157,0.587c0.241-0.157,0.335-0.496,0.472-0.781
	c0.388-0.816,0.713-1.776,1.399-2.247c0.22-0.152,0.959-0.351,1.242-0.025c-0.084,0.436-0.367,0.903-0.566,1.25
	c-0.44,0.98-0.886,1.961-1.326,2.942c-0.142,0.434-0.283,0.868-0.419,1.301c-0.105,0.315-0.079,0.682-0.252,0.895
	c-0.372,0.064-0.828,0.083-1.111,0.247c-0.414-0.646-0.414-1.526-0.697-2.297c-0.131-0.298-0.257-0.596-0.383-0.893
	c-0.21,0.082-0.267,0.536-0.372,0.751c-0.168,0.344-0.734,1.923-0.943,2.058c-0.183,0.118-0.398,0.083-0.66,0.114
	c-0.241,0.029-0.466-0.004-0.618-0.131c-0.089-0.569-0.068-1.179-0.178-1.716c-0.267-1.342-0.817-3.175-0.246-4.819
	c0.241-0.046,0.776-0.201,1.095-0.038c0.556,0.39,0.257,2.438,0.624,3.113c0.016-0.005,0.026-0.01,0.042-0.016
	C27.617,3.957,28.346,2.329,29.326,1.934L29.326,1.934z"/>
<path d="M39.288,3.436c-0.183,0.016-0.362,0.032-0.54,0.048c-0.807,0.213-1.577,1.002-1.813,1.887
	c-0.01,0.005-0.026,0.01-0.037,0.016c-0.021-1.386-1.363-2.473-2.966-1.941c-1.122,0.372-1.431,1.551-1.866,2.761
	c-0.157,0.433-0.362,1.175-0.204,1.683c0.597,1.914,3.249,0.79,4.04-0.105c0.283-0.319,0.43-0.787,0.728-1.102
	c0.01-0.012,0.016-0.024,0.021-0.036c0,0.564-0.031,1.36,0.32,1.633c0.194,0.153,0.587,0.236,0.917,0.214
	c1.184-0.08,1.682-0.203,2.316-0.925C41.258,6.363,41.331,3.588,39.288,3.436L39.288,3.436z M35.253,5.855
	c-0.178,0.687-0.781,2.495-1.64,2.15c-0.398-0.158-0.278-0.874-0.152-1.332c0.351-1.317,0.592-1.805,1.478-2.47
	C35.237,4.327,35.389,5.323,35.253,5.855L35.253,5.855z M38.559,7.577c-0.089-0.008-0.178-0.016-0.267-0.023
	c-0.204-0.127-0.341-0.537-0.21-0.878c0.272-0.704,0.613-1.544,0.975-2.189c0.199,0.082,0.194,0.293,0.267,0.482
	C39.649,5.828,39.078,7.218,38.559,7.577L38.559,7.577z"/>
<path d="M23.472,3.295c0.314,0.024,0.624,0.084,0.739,0.275c0.299,0.498-0.246,2.87-0.404,3.539
	c-0.115,0.497,0.084,0.921,0.073,1.344c-0.236,0.122-1.284,0.363-1.483,0.157c-0.194-0.198-0.141-0.575-0.252-0.844
	c-0.204-0.495-0.508-1.199-0.964-1.479c-0.058,0.269-0.12,0.537-0.183,0.806c-0.094,0.988,0.157,1.479-0.912,1.487
	c-0.22,0.002-0.435,0.023-0.587-0.089c-0.068-1.4,0.01-3.279,0.577-4.365c0.178-0.347,0.262-0.797,0.702-0.837
	c0.728-0.066,1.085,0.396,1.226,0.853c0.11,0.362,0.005,0.909,0.466,0.978c0.021-0.005,0.042-0.009,0.058-0.014
	c0.351-0.239,0.105-0.978,0.293-1.389C22.964,3.418,23.178,3.416,23.472,3.295L23.472,3.295z"/>
<path d="M19.416,3.781c-0.33-0.105-0.807-0.152-1.106-0.25c-0.351,0.657-0.524,1.721-0.618,2.679
	c-0.278-0.055-0.487-0.243-0.713-0.349c-0.236-0.084-0.472-0.168-0.702-0.253c-0.016-0.001-0.026-0.002-0.042-0.003
	c0.079-0.444,1.127-0.998,0.854-1.416c-0.592-0.905-3.003-1.118-3.983-0.597c-0.21,0.112-0.54,0.155-0.629,0.404
	c-0.079,0.219,0.173,0.473,0.21,0.687c0.031,0.207-0.042,0.432-0.073,0.624c-0.01-0.001-0.016-0.001-0.021-0.002
	c-0.367-0.36-0.267-1.019-0.786-1.273c-2.51-1.231-3.731,0.95-3.904,3.347C7.678,7.239,7.568,6.953,7.4,6.762
	C6.184,5.385,7.117,5.126,8.076,4.317C8.328,4.1,8.993,3.555,8.647,2.991C8.348,2.502,7.473,2.68,6.781,2.503
	C5.24,2.11,3.128,2.6,2.51,3.467L2.489,3.695c0.142,0.299,1.142,0.136,1.478,0.148c0.005,0.007,0.01,0.014,0.016,0.021
	C3.401,5.044,3.354,7.04,3.511,8.41c0.383,0.157,0.901,0.343,1.221,0.011c0.147-0.52,0.157-1.227,0.173-1.781
	C4.942,6.102,4.978,5.563,5.01,5.024C5.057,4.55,5.104,4.077,5.152,3.603C5.126,3.479,5.031,3.387,5.016,3.228
	c0.325-0.449,1.719-0.432,2.243-0.053C7.269,4.117,6.2,4.467,5.603,4.789C5.414,4.906,5.226,5.024,5.037,5.141
	c0,0.319,0.225,0.628,0.346,0.871C5.76,6.786,6.536,8.246,7.338,8.591c0.383,0.166,0.687-0.203,1.043-0.119
	c0.76,0.181,1.336,0.486,2.128,0.167c0.508-0.205,0.985-0.547,1.326-0.954c0.199-0.241,0.288-0.738,0.54-0.928
	c0.231,0.529-0.131,1.651,0.068,2.262c0.231,0.103,1.163-0.07,1.504-0.136c0.917-0.179,1.635-0.487,2.369-0.882
	c0.409-0.226,0.818-0.451,1.226-0.676c0.016,0.008,0.037,0.016,0.052,0.024c-0.047,0.5-0.11,1.108,0.21,1.318
	c0.288,0.189,0.922,0.167,1.08-0.059c0.162-0.239,0.126-0.584,0.231-0.897C19.337,6.997,19.646,4.382,19.416,3.781L19.416,3.781z
	 M10.518,7.38c-0.157,0.184-0.445,0.549-0.781,0.428C9.192,7.56,9.569,5.445,9.868,5.01c0.105-0.157,0.246-0.231,0.409-0.327
	C11.702,4.792,11.042,6.765,10.518,7.38L10.518,7.38z M14.17,5.386c0.079-0.724,0.246-0.796-0.136-1.273
	c0.278-0.36,1.19-0.193,1.467,0.09C15.611,4.927,14.789,5.423,14.17,5.386L14.17,5.386z M15.879,7.046
	c-0.461,0.475-1.263,0.787-1.939,0.996c-0.11-0.133-0.094-0.266-0.131-0.47c-0.121-0.666,0.351-1.133,0.833-1.227
	c0.189,0.01,0.383,0.021,0.571,0.031c0.173-0.062,0.341-0.123,0.514-0.184c0.084,0.014,0.162,0.027,0.246,0.041
	C16.298,6.438,16.057,6.865,15.879,7.046L15.879,7.046z"/>
</svg>
