<?xml version="1.0" encoding="utf-8"?>
<!-- Generator: Adobe Illustrator 17.0.0, SVG Export Plug-In . SVG Version: 6.00 Build 0)  -->
<!DOCTYPE svg PUBLIC "-//W3C//DTD SVG 1.1//EN" "http://www.w3.org/Graphics/SVG/1.1/DTD/svg11.dtd">
<svg version="1.1" id="Calque_1" xmlns="http://www.w3.org/2000/svg" xmlns:xlink="http://www.w3.org/1999/xlink" x="0px" y="0px"
	 width="32px" height="31.875px" viewBox="8.75 8.75 32 31.875" enable-background="new 8.75 8.75 32 31.875" xml:space="preserve">
<path fill="none" stroke="#1B1B1B" stroke-width="1.2968" d="M24.562,39.366c8.117,0,14.697-6.58,14.697-14.697
	S32.679,9.973,24.562,9.973S9.865,16.553,9.865,24.67S16.445,39.366,24.562,39.366L24.562,39.366z"/>
<path fill="#1B1B1B" d="M17.27,20.13v9.781l4.893-4.891L17.27,20.13L17.27,20.13z M22.855,25.708l-4.7,4.703h13.231l-4.7-4.703
	L24.77,27.63L22.855,25.708L22.855,25.708z M27.378,25.021l4.892,4.891V20.13L27.378,25.021L27.378,25.021z M26.686,24.326
	l4.915-4.914H17.939l4.916,4.914l1.915,2.086L26.686,24.326L26.686,24.326z"/>
</svg>
