<?xml version="1.0" encoding="utf-8"?>
<!-- Generator: Adobe Illustrator 17.0.0, SVG Export Plug-In . SVG Version: 6.00 Build 0)  -->
<!DOCTYPE svg PUBLIC "-//W3C//DTD SVG 1.1//EN" "http://www.w3.org/Graphics/SVG/1.1/DTD/svg11.dtd">
<svg version="1.1" id="Calque_1" xmlns="http://www.w3.org/2000/svg" xmlns:xlink="http://www.w3.org/1999/xlink" x="0px" y="0px"
	 width="47.5px" height="11.5px" viewBox="0.875 19 47.5 11.5" enable-background="new 0.875 19 47.5 11.5" xml:space="preserve">
<path d="M6.746,29.726c2.756,0,4.99-2.234,4.99-4.988c0-2.756-2.234-4.988-4.99-4.988
	c-2.754,0-4.988,2.234-4.988,4.988C1.758,27.494,3.992,29.726,6.746,29.726L6.746,29.726z"/>
<path d="M24.895,29.726c2.754,0,4.988-2.234,4.988-4.988c0-2.756-2.234-4.988-4.988-4.988
	c-2.756,0-4.99,2.234-4.99,4.988C19.905,27.494,22.139,29.726,24.895,29.726L24.895,29.726z"/>
<path d="M42.378,29.726c2.754,0,4.988-2.234,4.988-4.988c0-2.756-2.234-4.988-4.988-4.988
	c-2.756,0-4.988,2.234-4.988,4.988C37.39,27.494,39.622,29.726,42.378,29.726L42.378,29.726z"/>
</svg>
