<?xml version="1.0" encoding="UTF-8" standalone="no"?>
<!-- Created with Inkscape (http://www.inkscape.org/) -->
<svg
   xmlns:dc="http://purl.org/dc/elements/1.1/"
   xmlns:cc="http://creativecommons.org/ns#"
   xmlns:rdf="http://www.w3.org/1999/02/22-rdf-syntax-ns#"
   xmlns:svg="http://www.w3.org/2000/svg"
   xmlns="http://www.w3.org/2000/svg"
   xmlns:sodipodi="http://sodipodi.sourceforge.net/DTD/sodipodi-0.dtd"
   xmlns:inkscape="http://www.inkscape.org/namespaces/inkscape"
   id="svg3669"
   sodipodi:version="0.32"
   inkscape:version="0.46"
   width="2000"
   height="432"
   version="1.0"
   sodipodi:docname="logo-robinwood-gw.svg"
   inkscape:output_extension="org.inkscape.output.svg.inkscape">
  <metadata
     id="metadata3674">
    <rdf:RDF>
      <cc:Work
         rdf:about="">
        <dc:format>image/svg+xml</dc:format>
        <dc:type
           rdf:resource="http://purl.org/dc/dcmitype/StillImage" />
      </cc:Work>
    </rdf:RDF>
  </metadata>
  <defs
     id="defs3672">
    <inkscape:perspective
       sodipodi:type="inkscape:persp3d"
       inkscape:vp_x="0 : 526.18109 : 1"
       inkscape:vp_y="0 : 1000 : 0"
       inkscape:vp_z="744.09448 : 526.18109 : 1"
       inkscape:persp3d-origin="372.04724 : 350.78739 : 1"
       id="perspective3676" />
  </defs>
  <sodipodi:namedview
     inkscape:window-height="758"
     inkscape:window-width="1287"
     inkscape:pageshadow="2"
     inkscape:pageopacity="0.0"
     guidetolerance="10.0"
     gridtolerance="10.0"
     objecttolerance="10.0"
     borderopacity="1.0"
     bordercolor="#666666"
     pagecolor="#ffffff"
     id="base"
     showgrid="false"
     inkscape:zoom="0.38"
     inkscape:cx="1007.4582"
     inkscape:cy="332.66751"
     inkscape:window-x="0"
     inkscape:window-y="22"
     inkscape:current-layer="svg3669" />
  <path
     id="path3690"
     d="M 481.34659,351.18497 C 477.91263,348.99765 477.16047,328.65913 479.50731,301.45028 C 481.73862,275.58089 481.14719,257.76461 477.89563,252.89927 C 476.19047,250.34782 470.35542,258.43071 463.78173,272.45028 C 460.42915,279.60028 456.33611,287.43403 454.68609,289.8586 C 446.96609,301.20261 427.09498,317.53019 409.25355,327.18936 C 392.18781,336.42858 379.81326,339.90416 363.881,339.93292 C 351.62791,339.95503 342.02255,338.23587 319.00001,331.90012 C 308.82018,329.09866 298.24912,326.78258 295.49514,326.75029 C 292.33211,326.71321 286.35873,328.02725 279.26362,330.32095 C 267.34036,334.17548 261.82177,334.69093 255.73391,332.51869 C 236.61841,325.69798 210.70473,296.13411 187.30443,254.45028 C 165.185,215.04811 151.44589,185.41984 153.19534,180.89433 C 154.05123,178.6803 176.62547,165.16618 194.68211,156.05819 C 223.33628,141.60466 237.77769,130.43377 244.71882,117.35322 C 248.31117,110.58342 251.00001,101.39944 251.00001,95.899203 C 251.00001,92.414713 250.73259,92.137933 244.36779,89.034573 C 235.5917,84.755523 225.8352,82.354453 211.31525,80.900363 C 186.44974,78.410223 162.24255,83.504543 153.32063,93.105123 C 150.95511,95.650573 151.00365,95.919193 156.14315,108.72563 C 157.27625,111.54904 157.00559,116.58549 154.18168,145.22563 C 150.7077,180.45883 147.72547,223.09333 145.97825,262.50337 C 144.81659,288.70543 143.04857,306.49064 140.48991,317.71268 C 139.11314,323.75108 138.3003,325.36739 135.66704,327.30285 C 130.21936,331.30693 126.0012,332.45275 117.00001,332.3736 C 109.85152,332.31074 106.6715,331.67489 97.000009,328.37457 L 85.500009,324.45028 L 84.184631,312.95028 C 83.350497,305.65765 82.829546,287.73061 82.760715,263.95028 C 82.666861,231.52489 82.940502,224.01153 84.78285,208.42857 C 88.347639,178.27689 94.187709,152.28295 101.13916,135.62729 C 105.37813,125.47073 106.28877,122.90571 105.82151,122.43844 C 105.59615,122.21309 96.656619,122.44851 85.955879,122.96161 C 64.092304,124.00996 51.09774,123.06111 45.047523,119.97452 C 40.436404,117.6221 39.917955,116.4387 40.67992,110.0051 C 41.209483,105.53376 41.927975,104.34201 47.386515,98.880953 C 72.42194,73.833953 123.25407,57.809471 177.57341,57.840419 C 197.14744,57.851571 206.47069,58.809095 227.50001,62.968021 C 235.75001,64.599607 251.95001,66.830354 263.50001,67.925237 C 285.99022,70.057198 293.48088,71.548834 301.70792,75.533693 C 314.86634,81.907113 319.86836,98.270013 313.05856,112.66459 C 306.7402,126.02038 298.0173,134.78083 267.30248,158.61767 C 240.6395,179.31 234.03196,186.96549 231.9862,199.5351 C 229.90155,212.34368 235.64703,225.13865 253.50213,247.45028 C 257.46342,252.40028 262.66152,259.37528 265.05347,262.95028 C 269.48452,269.57293 277.66972,278.95028 279.01936,278.95028 C 279.42948,278.95028 280.0718,275.46278 280.44675,271.20028 C 283.49866,236.50469 293.85302,198.58612 306.86033,174.47141 C 320.3312,149.49728 337.58977,131.90534 357.45751,122.89688 C 378.31795,113.43831 405.54993,113.46918 432.50001,122.98197 C 459.91931,132.66038 464.64455,137.15146 473.50001,161.95028 C 479.25337,178.06197 485.53502,188.81094 487.8177,186.45028 C 489.46121,184.75062 492.30205,166.17054 491.648,161.39875 C 491.31336,158.9573 489.00567,152.52263 486.51979,147.09948 C 479.84779,132.54398 480.74137,126.08849 490.18734,120.60406 C 495.97848,117.24166 517.04646,108.23351 524.50001,105.93281 C 539.93286,101.16911 565.05019,98.384683 583.00001,99.447673 C 631.93851,102.3458 667.96814,115.16541 683.60175,135.2425 C 691.05142,144.80957 688.22723,152.13709 669.52492,171.76561 C 655.67422,186.30225 651.57734,191.32429 649.48583,196.32996 C 647.67978,200.65247 647.66531,200.95028 649.26139,200.95028 C 652.72267,200.95028 682.57186,212.65842 690.03998,216.94541 C 700.42592,222.90733 708.92468,226.92738 711.17055,226.94051 C 713.17042,226.95221 713.40686,225.89311 715.52156,207.45028 C 717.70675,188.39281 719.56504,176.93381 723.10023,160.71697 C 728.67174,135.15902 738.47376,108.38523 741.89844,109.37048 C 746.46501,110.68424 752.91022,112.12609 766.50001,114.87407 C 788.69949,119.36301 788.72265,119.37172 790.08598,123.73711 C 791.80586,129.24414 792.41015,168.70437 791.06021,187.3542 C 788.23943,226.32424 783.56547,258.65555 776.08391,290.95028 C 773.98155,300.02528 771.53329,311.49488 770.64333,316.43828 C 768.31517,329.37034 765.81436,333.776 758.80722,337.28988 C 748.40607,342.50577 730.29961,341.97081 719.46436,336.12749 C 709.9851,331.01544 706.34798,318.95334 707.42423,296.19774 C 707.76897,288.90884 708.30785,281.6611 708.62174,280.09165 C 709.02729,278.06389 708.74796,277.06754 707.6565,276.64871 C 706.73962,276.29686 695.5163,281.91968 679.81028,290.59951 C 616.71085,325.47098 589.24106,336.62732 545.00001,345.35013 C 517.50642,350.77092 485.32743,353.72063 481.34659,351.18497 z M 563.5984,302.62187 C 589.66161,293.30239 606.77437,284.85745 621.02805,274.28105 C 637.83356,261.81116 646.62744,246.44151 643.08978,235.7223 C 641.41471,230.64678 638.14141,228.09338 631.80944,226.92285 C 626.55836,225.95213 625.61618,226.11952 614.98559,229.91166 L 603.72434,233.92877 L 588.61217,233.68953 L 573.50001,233.45028 L 566.83501,236.7211 C 550.42245,244.77548 539.96932,260.58874 540.01795,277.28937 C 540.05906,291.41057 544.02725,307.95028 547.37408,307.95028 C 548.10157,307.95028 555.40252,305.5525 563.5984,302.62187 z M 376.50001,296.3979 C 381.46381,294.05344 393.0381,282.59999 399.18447,273.95028 C 412.38957,255.3669 423.04074,223.84675 422.98265,203.52406 C 422.95767,194.78688 420.58603,184.82973 416.8688,177.85549 C 411.78102,168.30983 404.25356,163.15424 391.51171,160.48829 L 384.75435,159.07447 L 378.43304,163.06674 C 367.80836,169.77683 364.35004,174.77825 359.12532,190.98949 C 352.26203,212.28491 348.63478,235.49829 348.58413,258.45028 C 348.55495,271.66726 348.93947,276.89673 350.31207,281.95028 C 352.49362,289.98224 356.12861,295.64862 360.31393,297.54165 C 364.32589,299.35627 371.27627,298.86514 376.50001,296.3979 z M 573.97094,188.97603 C 585.82346,185.89829 595.54907,180.57071 603.07301,173.03423 C 611.92906,164.16343 615.23669,157.27194 615.8013,146.51461 L 616.22918,138.36245 L 612.86459,135.87987 C 597.70839,124.69674 568.64353,121.71704 555.57264,130.00636 C 553.05769,131.60129 551.00001,133.31486 551.00001,133.8143 C 551.00001,134.31374 552.73658,137.36115 554.85905,140.58633 C 561.7472,151.05311 562.27082,155.46165 559.00001,175.45028 C 556.29873,191.95835 556.12025,190.95345 561.75001,190.93314 C 564.36251,190.92372 569.86193,190.04302 573.97094,188.97603 z M 1238.4167,343.78495 C 1233.0727,333.17315 1228.8305,319.18115 1223.1036,293.27855 C 1220.2859,280.5341 1216.8383,266.16537 1215.4423,261.34804 C 1213.1616,253.47769 1196.7967,213.53478 1195.105,211.70955 C 1193.9362,210.44833 1190.0741,213.88461 1187.9242,218.09881 C 1186.7973,220.30781 1184.3394,226.52764 1182.4622,231.92066 C 1180.585,237.31368 1175.1696,251.11408 1170.428,262.58822 C 1147.827,317.2798 1141.4113,330.90838 1136.4168,334.83705 C 1132.4118,337.98737 1123.7974,339.26922 1106,339.36318 C 1090.5292,339.44485 1089.2115,339.30275 1084.8741,337.08502 L 1080.2483,334.71977 L 1079.1462,324.58502 C 1078.5401,319.01091 1077.5605,307.47528 1076.9695,298.95028 C 1075.341,275.46356 1073.465,263.2633 1066.3594,229.95028 C 1054.433,174.03633 1050.911,148.40761 1050.9075,117.51227 C 1050.9045,91.238753 1053.0599,74.560003 1059.219,53.197073 C 1061.6073,44.913163 1060.8033,45.383311 1077.5,42.507058 C 1100.0295,38.626018 1110.8837,41.650094 1116.778,53.450285 C 1122.4378,64.781014 1123.7643,74.305193 1128.0589,134.45028 C 1129.6382,156.56713 1132.6686,173.11588 1136.3575,179.76795 C 1138.2131,183.11401 1139.3148,181.28019 1142.5101,169.52732 C 1150.9838,138.35866 1167.216,102.15835 1183.3254,78.502893 C 1194.0555,62.746473 1211.2798,46.335357 1223.6031,40.126715 C 1227.2301,38.299384 1228.4788,38.168932 1234.3647,39.002469 C 1244.8598,40.488768 1248.1006,42.467719 1250.666,48.956787 C 1253.8515,57.014111 1255,67.719834 1255,89.355983 C 1255,101.55676 1255.9283,119.39976 1257.5326,138.03362 C 1259.7398,163.67206 1260.5105,169.09341 1263.5326,180.24347 C 1265.4396,187.27972 1267,193.25259 1267,193.51652 C 1267,193.78045 1268.0901,193.28213 1269.4224,192.40915 C 1273.9547,189.43946 1278.9027,180.48573 1292.0567,151.45028 C 1308.3932,115.39012 1316.1428,100.07948 1324.1442,88.056513 C 1331.5938,76.862673 1345.5331,62.467671 1352.5301,58.742687 C 1366.0536,51.543216 1387.2589,49.255819 1397.7185,53.868252 C 1400.5887,55.133929 1403.448,56.785223 1404.0726,57.537794 C 1406.4773,60.435273 1398.3333,80.798193 1385.5269,103.9088 C 1382.0093,110.25661 1366.0719,144.36187 1350.1103,179.69825 C 1321.8413,242.28138 1320.842,244.71299 1311.5476,273.53633 C 1305.6572,291.80337 1300.8384,308.88389 1298.955,318.17217 C 1296.3561,330.98892 1293.111,340.95028 1291.5345,340.95028 C 1291.3009,340.95028 1285.1225,341.83039 1277.8048,342.90608 C 1262.8645,345.10229 1252.2858,347.3862 1247.1882,349.51611 C 1245.3004,350.3049 1243.3664,350.95028 1242.8904,350.95028 C 1242.4145,350.95028 1240.4014,347.72588 1238.4167,343.78495 z M 1764.104,348.80694 C 1747.4928,347.07068 1735.2939,342.3386 1728.7465,335.09147 C 1724.6801,330.59044 1723.5146,326.35378 1724.2467,318.7346 C 1724.712,313.89185 1725.0884,313.32187 1731.6185,307.57116 C 1735.4033,304.23808 1740.327,299.69736 1742.56,297.48065 L 1746.6199,293.45028 L 1749.956,274.95028 C 1751.7908,264.77528 1754.6066,251.72528 1756.2133,245.95028 C 1763.2007,220.83515 1765.1248,209.60235 1765.0757,194.21211 C 1765.0082,173.08677 1760.4375,161.11123 1747.6081,148.44595 C 1742.8255,143.72455 1736.9758,139.10726 1733.3455,137.18822 L 1727.1911,133.93483 L 1727.6958,127.69255 C 1729.4706,105.74158 1737.1838,93.008783 1753.3142,85.402093 C 1765.1697,79.811383 1770.6685,78.737033 1790,78.234483 C 1830.2944,77.186983 1880.1146,86.570353 1910.7136,100.97024 C 1930.6477,110.35126 1949.2113,125.00174 1959.6112,139.56032 C 1982.02,170.93024 1984.9606,215.18153 1966.4834,242.97532 C 1952.2435,264.39509 1927.2232,283.22563 1898.0446,294.48304 C 1891.8617,296.86845 1885.2158,298.38769 1874,299.97958 C 1860.2365,301.93306 1851.1829,304.23576 1847.197,306.79666 C 1846.4803,307.25711 1845.4594,310.74254 1844.9283,314.54206 C 1843.0067,328.28835 1841.247,330.53554 1826.4455,338.14437 C 1806.7847,348.2512 1788.5784,351.36511 1764.104,348.80694 z M 1830.6614,270.59018 C 1860.6399,257.7396 1882.0401,243.23339 1897.1018,225.55333 C 1909.9726,210.44509 1915.218,195.79346 1915.218,174.95028 C 1915.218,160.16282 1913.1047,150.74807 1907.3106,139.72188 C 1899.7858,125.40203 1890.6444,118.93948 1869.495,112.98788 C 1859.0422,110.0464 1857.8835,109.92342 1846,110.4943 C 1830.6386,111.23226 1823.4081,112.54221 1820.9105,115.03975 C 1817.7992,118.15107 1818.5653,120.38108 1823.8804,123.68515 C 1827.7658,126.10043 1829.3973,128.01683 1831.8829,133.08463 C 1839.1961,147.99576 1838.0172,167.62961 1826.4872,222.95028 C 1821.7014,245.91243 1818.2805,270.97703 1819.6335,273.16634 C 1820.4802,274.53621 1822.6244,274.0353 1830.6614,270.59018 z M 1384.2155,344.99502 C 1356.4749,337.4856 1338.017,312.68715 1338.0346,282.95028 C 1338.045,265.35393 1341.6017,249.70768 1353.0469,216.90977 C 1371.1587,165.00786 1381.3359,144.28302 1396.8884,127.63111 C 1421.3289,101.46284 1465.7916,92.018263 1502.2478,105.25112 C 1522.6432,112.65427 1542.7789,130.55141 1552.5127,149.9278 C 1557.7673,160.38801 1561.9837,175.62383 1562.0153,184.26566 C 1562.0313,188.62881 1563.3068,191.88095 1564.3439,190.20285 C 1564.6705,189.67433 1566.133,185.91379 1567.5938,181.84609 C 1579.4674,148.78352 1608.2036,119.37711 1638.9955,108.77907 C 1647.3263,105.91175 1668.4148,104.34668 1677.307,105.9358 C 1710.5286,111.87284 1731.1688,133.54982 1738.736,170.45028 C 1741.0371,181.6717 1741.064,208.41118 1738.7861,220.45028 C 1732.8665,251.73791 1721.2279,274.91072 1701.5856,294.51783 C 1688.0579,308.02133 1678.013,314.38197 1662.4229,319.31649 C 1646.6686,324.30296 1624.6898,327.30522 1603.5,327.36522 C 1591.7295,327.39855 1588.1726,327.02905 1581.1644,325.04493 C 1569.1353,321.63931 1564.3296,318.08331 1559.8564,309.27812 C 1555.1021,299.91937 1553.1544,288.6655 1552.2239,265.17736 L 1551.5,246.90445 L 1547.2242,252.38526 C 1544.8724,255.39971 1539.093,264.52252 1534.3809,272.65818 C 1524.1015,290.40626 1519.7074,296.29203 1510.723,304.34724 C 1491.2328,321.82179 1460.9736,337.11326 1432,344.12982 C 1419.234,347.22137 1394.1197,347.6761 1384.2155,344.99502 z M 1435.7416,306.78597 C 1441.4171,305.06099 1450.4452,297.48864 1456.6607,289.24004 C 1471.9635,268.93169 1489.6873,223.8866 1491.9274,199.60927 C 1494.0408,176.70673 1487.0147,145.12128 1478.577,139.59267 C 1476.2555,138.07157 1475.9513,138.19187 1469.8359,143.04971 C 1460.7394,150.27558 1447.5937,163.39858 1441.8871,170.95028 C 1432.0748,183.93506 1422.9161,204.57213 1414.9701,231.60142 C 1404.2004,268.23644 1402.6657,287.73921 1409.6118,299.69471 C 1414.2729,307.71728 1423.9957,310.35592 1435.7416,306.78597 z M 1640.1932,284.94257 C 1642.2001,283.28832 1645.8766,279.22832 1648.3633,275.92035 C 1666.0278,252.42131 1677.3484,214.40806 1674.2284,189.06815 C 1672.6888,176.56306 1666.5602,157.35661 1662.9612,153.75765 C 1661.4172,152.2136 1659.7005,150.95028 1659.1463,150.95028 C 1656.7298,150.95028 1637.1932,192.64469 1622.364,229.45028 L 1613.5,251.45028 L 1613.5592,260.95028 C 1613.6092,268.96881 1614.0179,271.30797 1616.18,275.95028 C 1617.5888,278.97528 1620.0372,282.65744 1621.6208,284.13286 C 1624.2891,286.6189 1625.8541,287.0616 1634.5222,287.78218 C 1635.6343,287.87463 1638.1863,286.59681 1640.1932,284.94257 z M 925.00001,335.30886 C 919.4407,333.01265 916.56399,327.02391 913.94141,312.28704 C 912.78284,305.77682 910.69466,297.52528 909.301,293.95028 C 904.55267,281.76995 894.32467,261.33836 888.69985,252.79716 C 883.53951,244.96126 870.26435,230.95028 868.00032,230.95028 C 867.47111,230.95028 866.8001,231.96278 866.5092,233.20028 C 859.0146,265.08206 858.98487,265.26346 857.94522,285.45028 C 857.3787,296.45028 856.47193,307.70028 855.93016,310.45028 C 854.01392,320.17712 848.61248,326.50799 840.11764,328.98367 C 828.96425,332.23415 803.9324,332.63349 796.86948,329.67362 L 793.23895,328.15217 L 792.50439,309.06411 C 790.9851,269.58412 794.58794,220.92012 801.57282,186.5756 C 806.14871,164.07603 810.66213,151.18919 822.99558,125.40872 C 833.42351,103.61131 838.18385,99.170933 852.19903,98.168153 C 866.76565,97.125923 878.82975,101.64302 889.28212,112.053 C 898.90771,121.63956 902.56007,129.85782 905.67996,148.95028 C 908.54191,166.46418 911.42494,173.21115 917.52256,176.66466 C 922.8485,179.68112 926.04701,179.55457 929.25987,176.20028 C 934.17843,171.0652 935.21251,166.78176 936.20052,147.45028 C 937.90389,114.12196 940.61715,108.98351 960.50001,101.43113 C 968.35432,98.447723 975.20086,98.452843 986.50004,101.45056 C 997.55734,104.38414 1001.9262,109.015 1004.0119,120.01294 C 1007.4252,138.01114 1001.6691,183.03507 987.95394,245.61882 C 981.12064,276.79999 980.66876,283.37527 983.97951,303.45028 C 985.06798,310.05028 985.96784,317.97512 985.97924,321.06104 L 986.00004,326.6718 L 979.25001,328.80103 C 965.12305,333.25725 954.69856,335.05846 940.50001,335.4965 C 932.80001,335.73406 925.82501,335.64962 925.00001,335.30886 z" />
</svg>
