<?xml version="1.0" encoding="utf-8"?>
<!-- Generator: Adobe Illustrator 17.0.0, SVG Export Plug-In . SVG Version: 6.00 Build 0)  -->
<!DOCTYPE svg PUBLIC "-//W3C//DTD SVG 1.1//EN" "http://www.w3.org/Graphics/SVG/1.1/DTD/svg11.dtd">
<svg version="1.1" id="Calque_1" xmlns="http://www.w3.org/2000/svg" xmlns:xlink="http://www.w3.org/1999/xlink" x="0px" y="0px"
	 width="29px" height="28.625px" viewBox="10.375 10.375 29 28.625" enable-background="new 10.375 10.375 29 28.625"
	 xml:space="preserve">
<path fill="none" stroke="#1B1B1B" stroke-width="1.1665" d="M24.647,37.889c7.302,0,13.221-5.919,13.221-13.22
	s-5.919-13.22-13.221-13.22c-7.301,0-13.22,5.919-13.22,13.22C11.427,31.971,17.346,37.889,24.647,37.889L24.647,37.889z"/>
<path fill="#1B1B1B" d="M31.091,21.54c0-0.108-0.089-0.203-0.203-0.203c-0.063,0-0.501,0.184-0.615,0.216
	c0.152-0.177,0.501-0.716,0.501-0.945c0-0.108-0.089-0.203-0.203-0.203c-0.032,0-0.07,0.013-0.101,0.032
	c-0.431,0.235-0.844,0.418-1.325,0.52c-0.476-0.456-1.122-0.723-1.788-0.723c-1.407,0-2.561,1.147-2.561,2.561
	c0,0.101,0.006,0.209,0.025,0.311c-1.395-0.12-2.72-0.704-3.759-1.635c-0.254-0.228-0.469-0.475-0.698-0.729
	c-0.05-0.057-0.095-0.076-0.171-0.076c-0.069,0-0.127,0.051-0.158,0.101c-0.228,0.336-0.349,0.881-0.349,1.287
	c0,0.59,0.203,1.166,0.583,1.623c-0.12-0.038-0.304-0.159-0.412-0.159c-0.133,0-0.247,0.095-0.247,0.228
	c0,0.888,0.488,1.712,1.236,2.174c-0.057-0.006-0.108-0.025-0.165-0.025c-0.107,0-0.196,0.095-0.196,0.196
	c0,0.025,0.006,0.044,0.013,0.07c0.278,0.856,0.976,1.503,1.851,1.705c-0.717,0.444-1.541,0.672-2.378,0.672
	c-0.19,0-0.38-0.032-0.564-0.032c-0.114,0-0.203,0.095-0.203,0.203c0,0.07,0.038,0.127,0.095,0.171
	c0.165,0.121,0.368,0.222,0.552,0.317c0.976,0.507,2.067,0.773,3.17,0.773c2.764,0,5.128-1.483,6.269-4.006
	c0.413-0.907,0.653-1.902,0.634-2.897v-0.209c0.431-0.323,0.85-0.742,1.135-1.204C31.078,21.623,31.091,21.585,31.091,21.54
	L31.091,21.54z"/>
</svg>
