<?xml version="1.0" encoding="utf-8"?>
<!-- Generator: Adobe Illustrator 17.0.0, SVG Export Plug-In . SVG Version: 6.00 Build 0)  -->
<!DOCTYPE svg PUBLIC "-//W3C//DTD SVG 1.1//EN" "http://www.w3.org/Graphics/SVG/1.1/DTD/svg11.dtd">
<svg version="1.1" id="Calque_1" xmlns="http://www.w3.org/2000/svg" xmlns:xlink="http://www.w3.org/1999/xlink" x="0px" y="0px"
	 width="31.5px" height="31.375px" viewBox="9 9 31.5 31.375" enable-background="new 9 9 31.5 31.375" xml:space="preserve">
<path fill="none" stroke="#1B1B1B" d="M24.562,39.319c8.091,0,14.65-6.559,14.65-14.65s-6.559-14.65-14.65-14.65
	s-14.65,6.559-14.65,14.65C9.912,32.76,16.471,39.319,24.562,39.319L24.562,39.319z"/>
<path fill="#1B1B1B" d="M32.892,27.251v-5.073c0,0,0-3.488-3.488-3.488h-9.555c0,0-3.488,0-3.488,3.488v5.073
	c0,0,0,3.488,3.488,3.488h9.555C29.404,30.739,32.892,30.739,32.892,27.251L32.892,27.251z M28.141,24.714l-5.533,3.273v-6.546
	L28.141,24.714L28.141,24.714z"/>
</svg>
